<svg width="526" height="186" viewBox="0 0 526 186" fill="none" xmlns="http://www.w3.org/2000/svg">
<path d="M405.769 45.375H435.831V30.25H495.938V45.375H450.845V75.625H495.938V90.75H435.831V75.625H405.769V108.9L417.794 121H526V12.1L513.975 0H405.769V45.375ZM345.662 30.25H360.693V90.75H345.662V30.25ZM270.524 108.883L282.548 120.983H300.586V75.6083H315.617V120.983H390.755V12.1L378.73 0H315.617V45.375H300.586V0H270.524V108.883ZM225.431 90.7333H165.324V30.2333H225.431V90.7333ZM135.262 0V108.883L147.287 120.983H225.431H255.493V12.1L243.468 0H135.262ZM90.169 75.6083H120.231V120.983H12.0247L0 108.883V0H108.206L120.231 12.1V45.375H90.169V30.25H30.0619V90.75H90.169V75.6083Z" fill="white"/>
<path d="M7.37428 180.45C3.5219 176.727 1.5791 172.051 1.5791 166.323C1.5791 160.562 3.50528 155.87 7.30784 152.196C11.1602 148.539 16.0421 146.702 21.8871 146.702C25.59 146.702 28.8612 147.504 31.8003 149.074V156.889C28.911 154.952 25.6398 153.983 21.9369 153.983C18.3502 153.983 15.3945 155.169 12.9868 157.49C10.6289 159.811 9.44991 162.716 9.44991 166.323C9.44991 169.93 10.6787 172.903 13.0864 175.224C15.4942 177.545 18.5495 178.68 22.2524 178.68C26.3206 178.68 29.7579 177.595 32.5476 175.391V183.206C29.4922 185.043 25.9553 185.961 21.8871 185.961C16.0587 185.944 11.2433 184.107 7.37428 180.45Z" fill="white"/>
<path d="M39.1404 185.193V147.471H66.6882V154.417H46.8617V161.698H62.8358V168.544H46.8617V178.246H67.2859V185.193H39.1404Z" fill="white"/>
<path d="M69.6929 177.862C70.4401 178.129 71.3534 178.296 72.4327 178.296C74.4751 178.296 75.8035 176.894 76.501 174.155C77.1984 171.4 77.6301 166.173 77.7297 158.525L77.8958 147.471H104.364V185.193H96.7093V154.417H85.3514L85.1356 162.065C84.8699 170.849 83.9068 176.944 82.13 180.334C80.3699 183.673 77.3146 185.343 72.8644 185.343C71.5194 185.343 70.4567 185.176 69.7095 184.859V177.862H69.6929Z" fill="white"/>
<path d="M112.65 185.193V147.471H120.372V159.928H128.624C133.075 159.928 136.612 161.113 139.235 163.485C141.859 165.806 143.154 168.878 143.154 172.585C143.154 176.309 141.875 179.382 139.235 181.686C136.612 184.007 133.075 185.193 128.624 185.193H112.65ZM120.372 178.346H128.193C132.693 178.346 135.366 176.192 135.366 172.468C135.366 168.644 132.693 166.49 128.193 166.49H120.372V178.346Z" fill="white"/>
<path d="M156.438 147.471L164.309 158.742L172.296 147.471H181.197L168.826 164.82L183.405 185.193H174.405L164.226 171.133L154.097 185.193H145.197L159.826 164.871L147.455 147.471H156.438Z" fill="white"/>
<path d="M189.482 152.43C193.185 148.606 197.835 146.719 203.414 146.719C208.993 146.719 213.593 148.606 217.296 152.43C220.999 156.204 222.875 160.83 222.875 166.34C222.875 171.784 220.999 176.426 217.296 180.25C213.593 184.074 208.993 185.961 203.414 185.961C197.835 185.961 193.185 184.074 189.482 180.25C185.779 176.426 183.969 171.784 183.969 166.34C183.969 160.83 185.796 156.204 189.482 152.43ZM203.414 178.664C206.735 178.664 209.475 177.478 211.667 175.157C213.859 172.836 214.988 169.88 214.988 166.324C214.988 162.767 213.859 159.811 211.667 157.49C209.475 155.169 206.735 153.983 203.414 153.983C200.093 153.983 197.303 155.169 195.111 157.49C192.92 159.811 191.84 162.767 191.84 166.324C191.84 169.88 192.92 172.853 195.111 175.157C197.303 177.462 200.093 178.664 203.414 178.664Z" fill="white"/>
<path d="M227.159 182.438V174.89C230.43 177.211 235.412 178.714 239.646 178.714C245.375 178.714 248.696 176.66 248.696 173.22C248.696 170.197 245.69 168.528 240.709 168.528H235.993V162.015H241.622C245.641 162.015 247.683 160.612 247.683 157.857C247.683 155.319 245.01 153.866 240.659 153.866C236.375 153.866 232.357 154.785 228.654 156.672V149.508C232.141 147.621 236.259 146.702 241.024 146.702C245.358 146.702 248.796 147.671 251.369 149.658C253.993 151.645 255.288 154.233 255.288 157.423C255.288 161.247 252.831 163.835 250.19 164.971C253.827 166.323 256.617 169.446 256.617 174.021C256.617 177.411 255.172 180.217 252.332 182.538C249.493 184.809 245.574 185.928 240.709 185.928C235.246 185.944 230.746 184.759 227.159 182.438Z" fill="white"/>
<path d="M259.938 147.471H291.388V154.417H279.499V185.193H271.777V154.417H259.938V147.471Z" fill="white"/>
<path d="M297.116 185.193V147.471H324.664V154.417H304.838V161.698H320.812V168.544H304.838V178.246H325.262V185.193H297.116Z" fill="white"/>
<path d="M338.861 147.471L346.732 158.742L354.719 147.471H363.619L351.249 164.82L365.828 185.193H356.828L346.649 171.133L336.52 185.193H327.62L342.249 164.871L329.878 147.471H338.861Z" fill="white"/>
<path d="M370.262 185.193V147.471H377.983V161.598H394.92V147.471H402.575V185.193H394.92V168.644H377.983V185.193H370.262Z" fill="white"/>
<path d="M410.861 185.193V147.471H418.582V172.051L436.748 147.471H443.39V185.193H435.735V160.462L417.353 185.193H410.861Z" fill="white"/>
<path d="M451.693 185.193V147.471H459.414V162.349L473.246 147.471H482.678L466.77 164.77L485.418 185.193H475.554L459.431 167.793V185.193H451.693Z" fill="white"/>
<path d="M486.248 185.193L502.321 147.253H509.711L525.784 185.193H517.582L513.879 176.459H498.021L494.318 185.193H486.248ZM500.445 170.047H511.438L505.975 156.955L500.445 170.047Z" fill="white"/>
</svg>
