<svg width="357" height="96" viewBox="0 0 357 96" fill="none" xmlns="http://www.w3.org/2000/svg">
<path d="M36.0855 70.6726H36.0728L35.8567 65.9572L36.0855 70.6726Z" fill="white"/>
<path d="M102.523 33.7809C102.486 33.7433 102.448 33.712 102.405 33.6745C102.436 33.7058 102.473 33.7308 102.505 33.7621C102.511 33.7684 102.517 33.7746 102.523 33.7809Z" fill="white"/>
<path d="M84.3059 17.6284L102.195 25.7627C102.538 25.9152 102.849 26.1122 103.11 26.341C103.809 26.951 104.222 27.7772 104.222 28.6605V55.5797L106.402 58.3441H113.545V22.6043C113.545 21.4286 113.017 20.3229 112.121 19.5095C111.784 19.2108 111.39 18.9439 110.952 18.7405L72.632 0.502046C71.2085 -0.17157 69.5117 -0.165215 68.101 0.508401L30.1433 18.7469C28.5609 19.5031 27.5759 20.9902 27.5759 22.6043V58.3441H34.7188L36.8985 55.5797V28.6605C36.8985 27.4531 37.6675 26.341 38.9067 25.769L56.8338 17.5395L57.2532 14.9403H53.6436V12.875C53.6436 12.0044 53.9868 11.1592 54.6032 10.5364L54.6159 10.5237C55.2387 9.90726 56.0775 9.5641 56.9482 9.5641H58.2636L60.1256 8.84599L60.4878 8.70619H80.6455L81.0077 8.84599L82.8633 9.5641H84.1915C85.0621 9.5641 85.901 9.90726 86.5174 10.5237L86.5364 10.5427C87.1465 11.1655 87.4897 12.0044 87.4897 12.875V14.9403H83.8801L84.3059 17.6284Z" fill="white"/>
<path d="M87.1595 87.7862H54.184C54.1205 87.7862 54.0506 87.7672 53.987 87.7418L44.8742 83.4014C44.442 83.198 44.5882 82.5498 45.0648 82.5498H96.1898C96.6664 82.5498 96.8189 83.198 96.3868 83.4014L87.3565 87.7354C87.2993 87.7672 87.2294 87.7862 87.1595 87.7862Z" fill="white"/>
<path d="M68.4887 94.6368L58.6704 89.966H82.7363L73.0261 94.6304C71.5962 95.3104 69.9122 95.3104 68.4887 94.6368Z" fill="white"/>
<path d="M102.697 80.3701H93.0056C95.1726 80.3701 96.9202 78.6098 96.9202 76.4491V75.2798C96.9202 75.229 96.9202 75.1845 96.9075 75.1337H101.489L103.326 76.4491C103.688 76.716 104.101 76.8368 104.527 76.8368C104.946 76.8368 105.372 76.7097 105.728 76.4491L107.565 75.1337H112.598C112.591 75.1464 112.585 75.1527 112.566 75.1718C112.146 75.6675 111.613 76.0869 110.984 76.3983L102.697 80.3701Z" fill="white"/>
<path d="M87.9092 80.3701H53.0654C55.2197 80.3701 56.98 78.6098 56.98 76.4491V75.1337H83.9946V76.4491C83.9946 78.6098 85.7549 80.3701 87.9092 80.3701Z" fill="white"/>
<path d="M47.9625 80.3701H38.5001L30.1562 76.4047C29.5207 76.106 28.9741 75.6802 28.5547 75.1718C28.542 75.1591 28.5357 75.1527 28.5229 75.1337H33.5624L35.3989 76.4491C35.7611 76.716 36.1742 76.8368 36.6 76.8368C37.0194 76.8368 37.4452 76.7097 37.8011 76.4491L39.6376 75.1337H44.0479C44.0415 75.1845 44.0416 75.229 44.0416 75.2798V76.4491C44.0416 78.6098 45.8018 80.3701 47.9625 80.3701Z" fill="white"/>
<path d="M67.3448 37.1061C67.3448 37.068 67.3511 37.0235 67.3575 36.979C67.3257 37.1061 67.313 37.2459 67.3066 37.3794L67.3003 37.5255C67.313 37.3794 67.3321 37.2332 67.3448 37.1061Z" fill="white"/>
<path d="M81.2619 49.8159C81.2619 50.9026 82.1389 51.7795 83.2256 51.7795H88.964C89.9617 51.7795 90.7688 50.9725 90.7688 49.9811V48.3161L86.2505 50.6611L86.2632 48.6212L90.7688 46.1046V44.0012L86.2505 46.3461L86.2632 44.3062L90.7688 41.7897V39.4129L86.2505 41.7579L86.2632 39.718L90.7688 37.2014V35.098L86.2505 37.4429L86.2632 35.403L90.7434 32.8992C90.6163 32.1303 89.9554 31.5329 89.1547 31.5329H82.9587C82.088 31.5329 81.3763 32.2446 81.3763 33.1216V29.8107H88.0489V28.6605C88.0489 27.1544 86.8288 25.9406 85.3354 25.9406H83.556L82.0436 16.5735L81.4208 12.6907L82.8061 12.8432H85.418C85.418 12.5001 85.2782 12.1887 85.0494 11.9599C84.8206 11.7311 84.5156 11.5913 84.1724 11.5913H82.4757L80.2515 10.7334H60.8755L58.6513 11.5913H56.9545C56.6114 11.5913 56.2936 11.7311 56.0648 11.9599C55.8424 12.1887 55.7026 12.4937 55.7026 12.8432H58.3145L59.6935 12.6907L59.0834 16.4655L57.5646 25.9343H55.7852C54.2791 25.9343 53.0653 27.1544 53.0653 28.6541V29.8044H59.7443V33.1153C59.7443 32.2383 59.0326 31.5265 58.1619 31.5265H51.9659C51.1589 31.5265 50.4916 32.1175 50.3772 32.8928L54.8574 35.3967L54.8701 37.4366L50.3518 35.0916V37.1951L54.8574 39.7116L54.8701 41.7515L50.3518 39.4066V41.7833L54.8574 44.2998L54.8701 46.3398L50.3518 43.9948V46.0983L54.8574 48.6148L54.8701 50.6547L50.3518 48.3098V49.9747C50.3518 50.9661 51.1589 51.7732 52.1566 51.7732H57.895C58.9817 51.7732 59.8587 50.8962 59.8587 49.8095V43.7851H63.7606V47.1468H66.6139C66.6139 47.1468 66.6203 47.0896 66.6266 46.9689C66.6266 46.9308 66.6266 46.8863 66.633 46.8354C66.6521 46.4414 66.6965 45.6979 66.7664 44.7765C66.7728 44.7002 66.7728 44.6303 66.7792 44.554C66.7919 44.2681 66.8173 43.9694 66.8363 43.6644C66.8491 43.4229 66.8681 43.175 66.8872 42.9145C66.8872 42.8509 66.8935 42.781 66.8999 42.7175C66.9126 42.5268 66.919 42.3362 66.938 42.1455C66.9507 41.9676 66.9571 41.8024 66.9762 41.6244C66.9952 41.3448 67.0143 41.0652 67.0333 40.7856C67.0461 40.5822 67.0651 40.3852 67.0778 40.1819C67.0842 40.0484 67.0969 39.9277 67.1096 39.8006C67.1414 39.4511 67.1668 39.1016 67.1922 38.7711C67.1986 38.644 67.2113 38.5233 67.224 38.4025C67.2367 38.2754 67.2431 38.161 67.2558 38.0403C67.2621 37.9259 67.2748 37.8115 67.2875 37.7035L67.2939 37.6526L67.3003 37.5128L67.3066 37.3667C67.313 37.2269 67.3257 37.0871 67.3574 36.9663C67.3574 36.9473 67.3574 36.9282 67.3638 36.9091C67.3765 36.8074 67.3956 36.7121 67.4146 36.6168C67.4464 36.4706 67.4782 36.3308 67.5227 36.1974C67.5672 36.0639 67.618 35.9495 67.6752 35.8288V35.8224C67.7197 35.7271 67.7705 35.6381 67.8277 35.5555C67.8785 35.4666 67.9357 35.3776 67.9993 35.3077C68.0374 35.2632 68.0819 35.2187 68.1137 35.1742C68.1709 35.1107 68.2281 35.0471 68.2916 34.9963C68.3488 34.9391 68.4187 34.8883 68.4823 34.8438C68.5776 34.7675 68.6793 34.704 68.7809 34.6468C68.8636 34.6023 68.9398 34.5642 69.0288 34.5324C69.0288 34.5324 69.0288 34.5324 69.0351 34.526C69.1177 34.4943 69.194 34.4625 69.2766 34.4371C69.3211 34.418 69.3656 34.4053 69.4101 34.3926C69.5435 34.3481 69.6579 34.3163 69.7787 34.3036C69.8803 34.2846 69.982 34.2655 70.071 34.2591C70.2235 34.2464 70.3506 34.2401 70.4396 34.2401C70.5158 34.2401 70.5539 34.2401 70.5539 34.2401C70.5539 34.2401 70.5984 34.2401 70.6683 34.2401C70.7573 34.2401 70.878 34.2464 71.0369 34.2591C71.1259 34.2655 71.2276 34.2782 71.3292 34.3036C71.4436 34.3163 71.5644 34.3481 71.6978 34.3926C71.7169 34.3989 71.7423 34.4053 71.7614 34.4117C71.7804 34.4117 71.8059 34.4244 71.8249 34.4307C71.9075 34.4498 71.9838 34.4879 72.0664 34.5197C72.0728 34.526 72.0728 34.526 72.0728 34.526C72.1617 34.5642 72.2443 34.6023 72.3206 34.6404C72.4223 34.6976 72.524 34.7675 72.6193 34.8374C72.6828 34.8819 72.7527 34.9328 72.8099 34.99C72.8099 34.99 72.8163 34.99 72.8163 34.9963C72.8735 35.0471 72.9307 35.098 72.9752 35.1679C73.0069 35.1806 73.0196 35.206 73.0323 35.2251C73.0514 35.2441 73.0768 35.2696 73.0959 35.3013C73.1531 35.3776 73.2103 35.4602 73.2675 35.5492C73.3247 35.6318 73.3755 35.7208 73.42 35.8161V35.8224C73.4772 35.9368 73.528 36.0576 73.5725 36.191C73.617 36.3245 73.6551 36.4643 73.6805 36.6104C73.7123 36.7439 73.7314 36.8837 73.7441 37.0299C73.7632 37.1697 73.7822 37.3095 73.7886 37.4493V37.5065C73.8013 37.659 73.8204 37.8242 73.8331 37.9895C73.8458 38.1483 73.8648 38.3263 73.8775 38.5042C73.8839 38.5932 73.8903 38.6821 73.8966 38.7711C73.903 38.8982 73.9093 39.0189 73.9284 39.1524C73.9347 39.2858 73.9474 39.4193 73.9602 39.5464C73.9729 39.6926 73.9792 39.8324 73.9919 39.9785C74.011 40.2454 74.0364 40.506 74.0555 40.7792C74.0745 41.0589 74.0936 41.3385 74.1127 41.6181C74.119 41.7325 74.1254 41.8532 74.1317 41.9676C74.1445 42.1583 74.1635 42.3425 74.1762 42.5268C74.1826 42.7365 74.1953 42.9463 74.2144 43.1496C74.2334 43.4546 74.2588 43.7533 74.2716 44.0393C74.2779 44.1664 74.2906 44.2871 74.3033 44.4079C74.316 44.6494 74.3351 44.8845 74.3478 45.1069C74.3542 45.2149 74.3605 45.3166 74.3669 45.431C74.3796 45.6407 74.3986 45.8441 74.405 46.022C74.4114 46.1046 74.4177 46.1745 74.4177 46.2508C74.4241 46.3398 74.4304 46.4224 74.4304 46.4923C74.4368 46.5876 74.4431 46.6702 74.4431 46.7401C74.4495 46.8291 74.4558 46.899 74.4558 46.9625C74.4622 47.0769 74.4686 47.1405 74.4686 47.1405H77.3219V43.7851H81.2238V49.8159H81.2619ZM79.6668 13.3008L80.0926 15.7093H80.099L81.6686 24.5235L79.9465 27.0845L78.9614 25.4576L78.3133 14.9022L78.2179 13.3008H79.6668ZM68.7936 17.6729C67.2812 17.7365 67.0969 18.0606 67.0969 18.0606C67.5417 18.3656 68.603 18.391 68.603 18.391C68.603 18.391 68.5267 18.8676 68.6411 19.8971C68.7047 20.5135 69.3147 21.2253 69.3147 21.2253L69.2766 22.2294C65.3175 22.3183 64.6121 24.6061 64.6121 24.6061V15.15C64.6121 14.4828 65.146 13.9426 65.8196 13.9426H75.2947C75.9619 13.9426 76.5021 14.4828 76.5021 15.15V24.6061C76.5021 24.6061 75.7904 22.3183 71.8313 22.2294L71.8122 21.2253C71.8122 21.2253 72.4223 20.5135 72.4858 19.8971C72.5939 18.8676 72.524 18.391 72.524 18.391C72.524 18.391 73.5789 18.372 74.0174 18.0606C74.0174 18.0606 73.8331 17.7365 72.3206 17.6729C72.3206 17.6729 72.4668 16.1795 70.5603 16.1096C68.6538 16.1795 68.7936 17.6729 68.7936 17.6729ZM59.452 24.5235L61.0534 15.5949L61.4665 13.3008H62.909L62.8201 14.7815L62.1655 25.4513L61.1805 27.0781L59.452 24.5235ZM76.267 41.3448L75.4281 30.6242C75.4281 30.6242 75.5044 29.4358 73.6234 29.3913H67.4401C66.436 29.3913 66.0039 29.779 65.8323 30.0967C65.7878 30.1793 65.756 30.2429 65.737 30.3064C65.6798 30.478 65.6798 30.5987 65.6798 30.6242L64.8536 41.3448H63.5127V29.9505C63.5127 27.8916 65.1841 26.2075 67.2558 26.2075H73.8648C75.9302 26.2075 77.6142 27.8852 77.6142 29.9505V41.3385H76.267V41.3448Z" fill="white"/>
<path d="M86.0599 76.4492C86.0599 77.4659 86.8861 78.3048 87.9092 78.3048H93.0058C94.0226 78.3048 94.8551 77.4659 94.8551 76.4492V75.2799L90.4702 77.5549V75.5849L91.2455 75.14L94.8551 73.0556V69.4906L91.9445 71.003L90.4702 71.7656V69.7892L94.8551 67.26V63.7013L90.4702 65.9763V63.9936L93.3426 62.335L94.8487 61.4707C94.7725 60.5175 93.9781 59.7676 93.0058 59.7676H88.1888L90.4448 61.064V63.0658L89.0785 62.335L86.2188 60.8543C86.1171 61.0894 86.0599 61.3436 86.0599 61.6169V64.3304L90.4448 66.8596V68.8297L86.0599 66.5546V66.5483H83.4799V57.2447H98.6045L100.117 59.1575L102.621 62.335L103.676 63.6695L103.682 63.7839L104.012 70.6726L98.1723 69.3317H98.1278C98.0452 69.3317 97.9817 69.3825 97.9372 69.4651C97.8355 69.6494 97.8419 69.9799 98.0262 70.1133L99.2654 71.003L104.534 74.7715L109.795 71.003L111.035 70.1133C111.219 69.9799 111.225 69.6494 111.124 69.4651C111.079 69.3825 111.016 69.3317 110.933 69.3317H110.888L105.048 70.6726L105.379 63.7839H118.654L118.985 70.6726L115.623 69.9036L113.144 69.3317H113.1C113.017 69.3317 112.954 69.3825 112.909 69.4651C112.808 69.6494 112.814 69.9799 112.998 70.1133L114.237 71.003L115.623 72.0007L119.493 74.7715L121.857 73.0874L124.761 71.003L126 70.1133C126.185 69.9799 126.191 69.6494 126.089 69.4651C126.07 69.4207 126.038 69.3889 126.007 69.3635C125.975 69.3444 125.93 69.3317 125.899 69.3317H125.854L121.755 70.2786L120.014 70.6726L120.344 63.7839H133.62L133.721 65.9573L133.944 70.6726L128.11 69.3317H128.066C127.983 69.3317 127.919 69.3825 127.875 69.4651C127.773 69.6494 127.78 69.9799 127.964 70.1133L129.203 71.003L134.471 74.7715L140.242 70.6344L140.966 70.1133C141.15 69.9799 141.157 69.6494 141.055 69.4651C141.011 69.3825 140.947 69.3317 140.864 69.3317H140.82L139.002 69.7511L134.98 70.6726L135.158 67.0122L135.31 63.7839H137.445V60.4031H105.398L104.413 59.1575L104.222 58.9161L100.263 53.8766V53.8639H72.6829L72.3652 46.1046V46.0919C72.2254 44.0266 71.9394 39.737 71.7297 37.4684C71.7233 37.4112 71.7233 37.3603 71.717 37.3095C71.6788 36.9218 71.628 36.3435 70.7002 36.3245L70.6494 36.3435L70.4269 36.3245C69.4864 36.3308 69.4292 36.9155 69.3911 37.2968C69.3847 37.3476 69.3847 37.4048 69.3784 37.4684C69.1432 39.9531 68.8382 44.7955 68.7175 46.5876L68.7048 46.7846L68.6984 46.8926L68.6921 47.0451L68.6857 47.204L68.4315 53.8639H60.4688C51.5593 53.8639 40.8641 53.8639 40.8641 53.8639V53.8766L36.8986 58.9161L36.708 59.1575L35.723 60.4031H3.67534V63.7839H5.81058L6.14103 70.6726L0.300905 69.3317H0.256421C0.173808 69.3317 0.110259 69.3825 0.065775 69.4651C-0.035903 69.6494 -0.0295481 69.9799 0.154743 70.1133L6.66213 74.7715L11.924 71.003L13.1632 70.1133C13.3475 69.9799 13.3538 69.6494 13.2521 69.4651C13.2077 69.3825 13.1441 69.3317 13.0615 69.3317H13.017L7.18323 70.6726L7.50733 63.7839H20.7827L21.1131 70.6726L15.273 69.3317H15.2285C15.1459 69.3317 15.0823 69.3825 15.0379 69.4651C14.9362 69.6494 14.9425 69.9799 15.1268 70.1133L16.366 71.003L21.6342 74.7715L23.9919 73.0874L25.5107 72.0007L26.8961 71.003L28.1353 70.1133C28.3195 69.9799 28.3259 69.6494 28.2242 69.4651C28.2052 69.4207 28.1734 69.3889 28.1416 69.3635C28.1098 69.3444 28.0781 69.3317 28.0336 69.3317H27.9891L25.5107 69.9036L23.8902 70.2786L22.149 70.6726L22.4794 63.7839H35.7547L35.8564 65.9573L36.0852 70.6726H36.0788L30.2451 69.3317H30.2006C30.118 69.3317 30.0544 69.3825 30.0099 69.4651C29.9083 69.6494 29.9146 69.9799 30.0989 70.1133L31.3381 71.003L36.6063 74.7715L41.8681 71.003L42.3829 70.6344L43.1073 70.1133C43.2916 69.9799 43.298 69.6494 43.1963 69.4651C43.1518 69.3825 43.0883 69.3317 43.0057 69.3317H42.9612L41.1437 69.7511L37.121 70.6726L37.299 67.0122L37.4515 63.7839L37.4579 63.6695L38.5064 62.335L41.0102 59.1575L42.5227 57.2447H57.66V66.5546H54.9083V66.561L50.5235 68.836V66.866L54.9083 64.3368V61.6232C54.9083 61.35 54.8511 61.0958 54.7368 60.8606L51.8771 62.3413L50.5235 63.0404V61.0704L52.7731 59.774H47.9625C46.9965 59.774 46.1894 60.5238 46.1195 61.4771L47.6257 62.3413L50.4981 64V65.9827L46.1068 63.7076V67.2664L50.4981 69.7956V71.772L49.0237 71.0094L46.1068 69.4969V73.062L49.7228 75.1464L50.4981 75.5912V77.5613L46.1068 75.2862V76.4555C46.1068 77.4723 46.9457 78.3111 47.9625 78.3111H53.0591C54.0758 78.3111 54.9083 77.4723 54.9083 76.4555V72.363L50.5235 74.638V72.6553L53.3895 71.003H87.5787L90.4448 72.6553V74.638L86.0599 72.363V76.4492ZM60.9391 58.9605V57.2447H80.1753V58.9605H60.9391ZM60.9391 66.5546V62.3413H80.1753V66.5546H60.9391Z" fill="white"/>
<path d="M67.345 37.1061C67.345 37.068 67.3514 37.0235 67.3577 36.979C67.326 37.1061 67.3132 37.2459 67.3069 37.3794L67.3005 37.5255C67.3132 37.3794 67.3323 37.2332 67.345 37.1061Z" fill="white"/>
<path d="M310.997 30.4907H322.499V24.7395H345.498V30.4907H328.244V41.993H345.498V47.7442H322.499V41.993H310.997V54.6455L315.598 59.2465H357V17.8381L352.399 13.2372H310.997V30.4907ZM287.999 24.7395H293.75V47.7442H287.999V24.7395ZM259.249 54.6392L263.85 59.2401H270.752V41.9866H276.503V59.2401H305.252V17.8381L300.651 13.2372H276.503V30.4907H270.752V13.2372H259.249V54.6392ZM241.996 47.7378H218.998V24.7332H241.996V47.7378ZM207.495 13.2372V54.6392L212.096 59.2401H241.996H253.498V17.8381L248.897 13.2372H207.495ZM190.242 41.9866H201.744V59.2401H160.342L155.741 54.6392V13.2372H197.143L201.744 17.8381V30.4907H190.242V24.7395H167.244V47.7442H190.242V41.9866Z" fill="white"/>
<path d="M158.518 82.0732C157.044 80.656 156.3 78.8767 156.3 76.697C156.3 74.5045 157.037 72.7188 158.493 71.3207C159.967 69.929 161.835 69.23 164.072 69.23C165.489 69.23 166.741 69.535 167.866 70.1324V73.1065C166.76 72.3693 165.509 72.0007 164.091 72.0007C162.719 72.0007 161.588 72.4519 160.666 73.3352C159.764 74.2186 159.313 75.3243 159.313 76.697C159.313 78.0696 159.783 79.2008 160.704 80.0841C161.626 80.9674 162.795 81.3996 164.212 81.3996C165.769 81.3996 167.085 80.9865 168.152 80.1477V83.1217C166.983 83.8208 165.629 84.1703 164.072 84.1703C161.842 84.1639 159.999 83.4649 158.518 82.0732Z" fill="white"/>
<path d="M170.675 83.878V69.5223H181.218V72.166H173.63V74.9367H179.744V77.5422H173.63V81.2344H181.447V83.878H170.675Z" fill="white"/>
<path d="M182.368 81.0882C182.654 81.1899 183.003 81.2534 183.416 81.2534C184.198 81.2534 184.707 80.7196 184.973 79.6774C185.24 78.6289 185.406 76.6398 185.444 73.7293L185.507 69.5223H195.637V83.878H192.707V72.166H188.361L188.278 75.0765C188.176 78.4192 187.808 80.7387 187.128 82.0287C186.454 83.2997 185.285 83.9352 183.582 83.9352C183.067 83.9352 182.66 83.8716 182.374 83.7509V81.0882H182.368Z" fill="white"/>
<path d="M198.808 83.878V69.5223H201.763V74.2631H204.921C206.625 74.2631 207.978 74.7143 208.982 75.6167C209.986 76.5 210.482 77.6693 210.482 79.0801C210.482 80.4972 209.993 81.6665 208.982 82.5435C207.978 83.4268 206.625 83.878 204.921 83.878H198.808ZM201.763 81.2725H204.756C206.478 81.2725 207.502 80.4527 207.502 79.0356C207.502 77.5803 206.478 76.7605 204.756 76.7605H201.763V81.2725Z" fill="white"/>
<path d="M215.566 69.5223L218.578 73.8119L221.635 69.5223H225.041L220.307 76.1251L225.886 83.878H222.442L218.547 78.5272L214.67 83.878H211.264L216.863 76.1441L212.128 69.5223H215.566Z" fill="white"/>
<path d="M228.212 71.4097C229.629 69.9545 231.409 69.2364 233.544 69.2364C235.679 69.2364 237.439 69.9545 238.857 71.4097C240.274 72.8459 240.992 74.6062 240.992 76.7034C240.992 78.775 240.274 80.5417 238.857 81.997C237.439 83.4522 235.679 84.1703 233.544 84.1703C231.409 84.1703 229.629 83.4522 228.212 81.997C226.795 80.5417 226.102 78.775 226.102 76.7034C226.102 74.6062 226.801 72.8459 228.212 71.4097ZM233.544 81.3933C234.815 81.3933 235.863 80.9421 236.702 80.0587C237.541 79.1754 237.973 78.0506 237.973 76.697C237.973 75.3434 237.541 74.2186 236.702 73.3353C235.863 72.4519 234.815 72.0007 233.544 72.0007C232.273 72.0007 231.205 72.4519 230.366 73.3353C229.528 74.2186 229.114 75.3434 229.114 76.697C229.114 78.0506 229.528 79.1818 230.366 80.0587C231.205 80.9357 232.273 81.3933 233.544 81.3933Z" fill="white"/>
<path d="M242.631 82.8294V79.957C243.883 80.8404 245.79 81.4123 247.41 81.4123C249.603 81.4123 250.874 80.6307 250.874 79.3215C250.874 78.1713 249.723 77.5358 247.817 77.5358H246.012V75.0574H248.166C249.704 75.0574 250.486 74.5236 250.486 73.4751C250.486 72.5091 249.463 71.9563 247.798 71.9563C246.158 71.9563 244.62 72.3058 243.203 73.0239V70.2976C244.538 69.5795 246.114 69.23 247.938 69.23C249.596 69.23 250.912 69.5986 251.897 70.3548C252.901 71.1111 253.397 72.0961 253.397 73.3098C253.397 74.7651 252.456 75.7501 251.446 76.1822C252.837 76.697 253.905 77.8853 253.905 79.6266C253.905 80.9166 253.352 81.9842 252.265 82.8676C251.179 83.7318 249.679 84.1576 247.817 84.1576C245.726 84.164 244.004 83.7128 242.631 82.8294Z" fill="white"/>
<path d="M255.176 69.5223H267.212V72.166H262.662V83.878H259.707V72.166H255.176V69.5223Z" fill="white"/>
<path d="M269.405 83.878V69.5223H279.947V72.166H272.36V74.9367H278.473V77.5422H272.36V81.2344H280.176V83.878H269.405Z" fill="white"/>
<path d="M285.381 69.5223L288.393 73.8119L291.45 69.5223H294.856L290.121 76.1251L295.701 83.878H292.257L288.361 78.5272L284.485 83.878H281.078L286.677 76.1441L281.943 69.5223H285.381Z" fill="white"/>
<path d="M297.398 83.878V69.5223H300.353V74.8986H306.835V69.5223H309.764V83.878H306.835V77.5803H300.353V83.878H297.398Z" fill="white"/>
<path d="M312.935 83.878V69.5223H315.89V78.8767L322.843 69.5223H325.385V83.878H322.455V74.4664L315.42 83.878H312.935Z" fill="white"/>
<path d="M328.562 83.878V69.5223H331.517V75.1845L336.811 69.5223H340.42L334.332 76.106L341.469 83.878H337.694L331.523 77.2562V83.878H328.562Z" fill="white"/>
<path d="M341.786 83.878L347.938 69.4397H350.766L356.917 83.878H353.778L352.361 80.5544H346.292L344.875 83.878H341.786ZM347.22 78.1141H351.427L349.336 73.1319L347.22 78.1141Z" fill="white"/>
</svg>
