<svg width="1920" height="740" viewBox="0 0 1920 740" fill="none" xmlns="http://www.w3.org/2000/svg">
<g opacity="0.05" clip-path="url(#clip0_19_408)">
<path d="M-17.3697 223.102C-16.7516 222.723 -16.1334 222.244 -15.5751 221.686C-15.0168 221.127 -14.5182 220.509 -14.1593 219.891L82.3938 66.2311C83.4108 64.5958 84.7867 63.2197 86.4219 62.2026L240.065 -34.3608C240.684 -34.7397 241.302 -35.2383 241.86 -35.7767C242.418 -36.3351 242.917 -36.9533 243.276 -37.5715C246.247 -42.0188 245.749 -48.0815 241.86 -51.9903C239.328 -54.5231 235.977 -55.6398 232.767 -55.2608C232.388 -55.2608 232.089 -55.201 231.77 -55.1412C231.531 -55.1412 231.331 -55.0814 231.152 -55.0215L11.7637 -19.0446C6.33983 -18.1472 2.09241 -13.8994 1.19508 -8.47494L-34.7979 210.977C-34.8578 211.156 -34.9176 211.355 -34.9176 211.595C-34.9774 211.894 -35.0372 212.213 -35.0372 212.592C-35.4161 215.803 -34.2994 219.153 -31.767 221.686C-27.8785 225.575 -21.8165 226.073 -17.3697 223.102Z" fill="white" fill-opacity="0.5"/>
<path d="M443.501 -111.061C442.883 -110.682 442.265 -110.204 441.706 -109.645C441.148 -109.087 440.649 -108.469 440.29 -107.85L343.737 45.8095C342.72 47.4448 341.345 48.8208 339.709 49.8379L186.066 146.401C185.448 146.78 184.83 147.279 184.271 147.817C183.713 148.376 183.214 148.994 182.855 149.612C179.884 154.059 180.383 160.122 184.271 164.031C186.804 166.564 190.154 167.68 193.364 167.301C193.743 167.301 194.042 167.242 194.361 167.182C194.601 167.182 194.8 167.122 194.979 167.062L414.407 131.065C419.831 130.168 424.079 125.92 424.976 120.495L460.969 -98.9559C461.029 -99.1354 461.089 -99.3348 461.089 -99.5741C461.149 -99.8733 461.208 -100.192 461.208 -100.571C461.587 -103.782 460.471 -107.132 457.938 -109.665C454.01 -113.534 447.948 -114.033 443.501 -111.061Z" fill="white" fill-opacity="0.5"/>
<path d="M266.586 507.088C267.205 506.709 267.823 506.231 268.381 505.672C268.94 505.114 269.438 504.496 269.797 503.877L366.35 350.217C367.367 348.582 368.743 347.206 370.378 346.189L524.022 249.626C524.64 249.247 525.258 248.748 525.816 248.21C526.375 247.651 526.873 247.033 527.232 246.415C530.203 241.968 529.705 235.905 525.816 231.996C523.284 229.463 519.934 228.347 516.723 228.725C516.344 228.725 516.045 228.785 515.726 228.845C515.487 228.845 515.288 228.905 515.108 228.965L295.7 264.942C290.276 265.839 286.029 270.087 285.131 275.512L249.138 494.963C249.079 495.142 249.019 495.342 249.019 495.581C248.959 495.88 248.899 496.199 248.899 496.578C248.52 499.789 249.637 503.139 252.169 505.672C256.078 509.561 262.14 510.06 266.586 507.088Z" fill="white" fill-opacity="0.5"/>
<path d="M609.069 164.569C609.687 164.19 610.305 163.712 610.864 163.153C611.422 162.595 611.92 161.977 612.279 161.358L710.388 5.2255L866.504 -92.8934C867.122 -93.2723 867.74 -93.7709 868.299 -94.3093C868.857 -94.8677 869.355 -95.486 869.714 -96.1042C872.686 -100.552 872.187 -106.614 868.299 -110.523C865.766 -113.056 862.416 -114.172 859.206 -113.794C858.827 -113.794 858.528 -113.734 858.209 -113.674C857.969 -113.674 857.77 -113.614 857.59 -113.554L638.162 -77.5573C632.739 -76.6599 628.491 -72.4121 627.594 -66.9876L591.601 152.464C591.541 152.643 591.481 152.843 591.481 153.082C591.421 153.381 591.361 153.7 591.361 154.079C590.983 157.29 592.099 160.64 594.632 163.173C598.56 167.042 604.622 167.541 609.069 164.569Z" fill="white" fill-opacity="0.5"/>
<path d="M-75.8958 849.607C-75.2776 849.228 -74.6594 848.75 -74.1011 848.191C-73.5428 847.633 -73.0442 847.015 -72.6853 846.396L25.4232 690.264L181.539 592.145C182.157 591.766 182.776 591.267 183.334 590.729C183.892 590.17 184.391 589.552 184.75 588.934C187.721 584.487 187.222 578.424 183.334 574.515C180.801 571.982 177.451 570.866 174.241 571.245C173.862 571.245 173.563 571.304 173.244 571.364C173.005 571.364 172.805 571.424 172.626 571.484L-46.8022 607.481C-52.2261 608.378 -56.4735 612.626 -57.3708 618.051L-93.3639 837.502C-93.4237 837.681 -93.4835 837.881 -93.4835 838.12C-93.5433 838.419 -93.6031 838.738 -93.6031 839.117C-93.982 842.328 -92.8654 845.678 -90.3329 848.211C-86.4046 852.08 -80.3426 852.579 -75.8958 849.607Z" fill="white" fill-opacity="0.5"/>
<path d="M101.019 231.458C100.4 231.837 99.7822 232.315 99.2239 232.874C98.6656 233.432 98.1671 234.05 97.8081 234.669L1.25497 388.329C0.237991 389.964 -1.13789 391.34 -2.77304 392.357L-156.416 488.92C-157.035 489.299 -157.653 489.798 -158.211 490.336C-158.77 490.895 -159.268 491.513 -159.627 492.131C-162.598 496.578 -162.1 502.641 -158.211 506.55C-155.679 509.083 -152.329 510.199 -149.118 509.82C-148.739 509.82 -148.44 509.761 -148.121 509.701C-147.882 509.701 -147.682 509.641 -147.503 509.581L71.925 473.584C77.3489 472.687 81.5963 468.439 82.4936 463.015L118.487 243.563C118.546 243.384 118.606 243.184 118.606 242.945C118.666 242.646 118.726 242.327 118.726 241.948C119.105 238.737 117.988 235.387 115.456 232.854C111.547 228.985 105.485 228.486 101.019 231.458Z" fill="white" fill-opacity="0.5"/>
<path d="M727.457 172.926C726.839 173.304 726.221 173.783 725.662 174.341C725.104 174.9 724.605 175.518 724.247 176.136L627.693 329.796C626.676 331.431 625.301 332.808 623.665 333.825L470.022 430.388C469.404 430.767 468.786 431.266 468.227 431.804C467.669 432.362 467.17 432.981 466.812 433.599C463.84 438.046 464.339 444.109 468.227 448.018C470.76 450.55 474.11 451.667 477.32 451.288C477.699 451.288 477.998 451.228 478.317 451.169C478.557 451.169 478.756 451.109 478.935 451.049L698.363 415.052C703.787 414.155 708.035 409.907 708.932 404.482L744.925 185.031C744.985 184.851 745.045 184.652 745.045 184.413C745.105 184.114 745.164 183.794 745.164 183.416C745.543 180.205 744.427 176.854 741.894 174.322C737.966 170.433 731.904 169.954 727.457 172.926Z" fill="white" fill-opacity="0.5"/>
<path d="M550.543 791.074C551.161 790.695 551.779 790.217 552.337 789.659C552.896 789.1 553.394 788.482 553.753 787.864L650.306 634.204C651.323 632.568 652.699 631.192 654.334 630.175L807.978 533.612C808.596 533.233 809.214 532.734 809.773 532.196C810.331 531.638 810.829 531.019 811.188 530.401C814.159 525.954 813.661 519.891 809.773 515.982C807.24 513.45 803.89 512.333 800.68 512.712C800.301 512.712 800.002 512.772 799.682 512.831C799.443 512.831 799.244 512.891 799.064 512.951L579.656 548.928C574.232 549.825 569.985 554.073 569.088 559.498L533.095 778.949C533.035 779.129 532.975 779.328 532.975 779.567C532.915 779.867 532.855 780.186 532.855 780.565C532.476 783.775 533.593 787.126 536.126 789.659C540.034 793.547 546.096 794.046 550.543 791.074Z" fill="white" fill-opacity="0.5"/>
<path d="M893.025 448.556C893.643 448.177 894.261 447.698 894.82 447.14C895.378 446.582 895.877 445.963 896.236 445.345L994.344 289.212L1150.46 191.093C1151.08 190.714 1151.7 190.216 1152.25 189.677C1152.81 189.119 1153.31 188.501 1153.67 187.883C1156.64 183.435 1156.14 177.373 1152.25 173.464C1149.72 170.931 1146.37 169.814 1143.16 170.193C1142.78 170.193 1142.48 170.253 1142.16 170.313C1141.93 170.313 1141.73 170.373 1141.55 170.433L922.119 206.429C916.695 207.327 912.447 211.575 911.55 216.999L875.557 436.451C875.497 436.63 875.437 436.829 875.437 437.069C875.378 437.368 875.318 437.687 875.318 438.066C874.939 441.277 876.056 444.627 878.588 447.16C882.496 451.029 888.558 451.527 893.025 448.556Z" fill="white" fill-opacity="0.5"/>
<path d="M1069.94 -169.593C1069.32 -169.215 1068.7 -168.736 1068.14 -168.178C1067.59 -167.619 1067.09 -167.001 1066.73 -166.383L970.176 -12.7228C969.159 -11.0875 967.783 -9.71141 966.148 -8.69434L812.504 87.869C811.886 88.248 811.268 88.7466 810.71 89.285C810.151 89.8434 809.653 90.4616 809.294 91.0798C806.323 95.5271 806.821 101.59 810.71 105.499C813.242 108.031 816.592 109.148 819.803 108.769C820.182 108.769 820.481 108.709 820.8 108.65C821.039 108.65 821.238 108.59 821.418 108.53L1040.85 72.533C1046.27 71.6355 1050.52 67.3877 1051.41 61.9633L1087.41 -157.488C1087.47 -157.668 1087.53 -157.867 1087.53 -158.106C1087.59 -158.406 1087.65 -158.725 1087.65 -159.104C1088.03 -162.314 1086.91 -165.665 1084.38 -168.197C1080.45 -172.066 1074.39 -172.565 1069.94 -169.593Z" fill="white" fill-opacity="0.5"/>
<path d="M1235.51 106.037C1236.13 105.658 1236.74 105.179 1237.3 104.621C1237.86 104.062 1238.36 103.444 1238.72 102.826L1335.27 -50.8338C1336.29 -52.4691 1337.66 -53.8452 1339.3 -54.8623L1492.94 -151.426C1493.56 -151.805 1494.18 -152.303 1494.74 -152.842C1495.3 -153.4 1495.79 -154.018 1496.15 -154.636C1499.12 -159.084 1498.63 -165.146 1494.74 -169.055C1492.2 -171.588 1488.85 -172.705 1485.64 -172.326C1485.27 -172.326 1484.97 -172.266 1484.65 -172.206C1484.41 -172.206 1484.21 -172.146 1484.03 -172.086L1264.6 -136.09C1259.18 -135.192 1254.93 -130.944 1254.03 -125.52L1218.04 93.9315C1217.98 94.111 1217.92 94.3105 1217.92 94.5498C1217.86 94.8489 1217.8 95.168 1217.8 95.5469C1217.42 98.7577 1218.54 102.108 1221.07 104.641C1224.98 108.51 1231.04 109.008 1235.51 106.037Z" fill="white" fill-opacity="0.5"/>
<path d="M384.975 515.444C384.357 515.823 383.739 516.302 383.18 516.86C382.622 517.418 382.123 518.037 381.764 518.655L285.211 672.315C284.194 673.95 282.818 675.326 281.183 676.343L127.54 772.907C126.922 773.285 126.303 773.784 125.745 774.323C125.187 774.881 124.688 775.499 124.329 776.117C121.358 780.565 121.857 786.627 125.745 790.536C128.278 793.069 131.628 794.186 134.838 793.807C135.217 793.807 135.516 793.747 135.835 793.687C136.074 793.687 136.274 793.627 136.453 793.567L355.881 757.571C361.305 756.673 365.553 752.425 366.45 747.001L402.443 527.549C402.503 527.37 402.563 527.171 402.563 526.931C402.622 526.632 402.682 526.313 402.682 525.934C403.061 522.723 401.944 519.373 399.412 516.84C395.484 512.951 389.422 512.473 384.975 515.444Z" fill="white" fill-opacity="0.5"/>
<path d="M1011.41 456.892C1010.8 457.271 1010.18 457.749 1009.62 458.308C1009.06 458.866 1008.56 459.484 1008.2 460.103L911.65 613.762C910.633 615.398 909.257 616.774 907.622 617.791L753.979 714.354C753.36 714.733 752.742 715.232 752.184 715.77C751.626 716.329 751.127 716.947 750.768 717.565C747.797 722.012 748.295 728.075 752.184 731.984C754.716 734.517 758.066 735.633 761.277 735.254C761.656 735.254 761.955 735.195 762.274 735.135C762.513 735.135 762.713 735.075 762.892 735.015L982.32 699.018C987.744 698.121 991.991 693.873 992.889 688.449L1028.88 468.997C1028.94 468.818 1029 468.618 1029 468.379C1029.06 468.08 1029.12 467.761 1029.12 467.382C1029.5 464.171 1028.38 460.821 1025.85 458.288C1021.92 454.419 1015.86 453.94 1011.41 456.892Z" fill="white" fill-opacity="0.5"/>
<path d="M1176.98 732.542C1177.6 732.163 1178.22 731.685 1178.78 731.126C1179.33 730.568 1179.83 729.95 1180.19 729.331L1278.3 573.199L1434.42 475.08C1435.03 474.701 1435.65 474.202 1436.21 473.664C1436.77 473.105 1437.27 472.487 1437.63 471.869C1440.6 467.422 1440.1 461.359 1436.21 457.45C1433.68 454.917 1430.33 453.801 1427.12 454.18C1426.74 454.18 1426.44 454.239 1426.12 454.299C1425.88 454.299 1425.68 454.359 1425.5 454.419L1206.08 490.416C1200.65 491.313 1196.4 495.561 1195.51 500.986L1159.51 720.437C1159.45 720.616 1159.39 720.816 1159.39 721.055C1159.33 721.354 1159.27 721.673 1159.27 722.052C1158.9 725.263 1160.01 728.613 1162.54 731.146C1166.45 735.015 1172.51 735.514 1176.98 732.542Z" fill="white" fill-opacity="0.5"/>
<path d="M1353.9 114.393C1353.28 114.772 1352.66 115.25 1352.1 115.809C1351.54 116.367 1351.04 116.986 1350.69 117.604L1254.13 271.264C1253.12 272.899 1251.74 274.275 1250.1 275.292L1096.46 371.855C1095.84 372.234 1095.22 372.733 1094.67 373.271C1094.11 373.83 1093.61 374.448 1093.25 375.066C1090.28 379.513 1090.78 385.576 1094.67 389.485C1097.2 392.018 1100.55 393.134 1103.76 392.756C1104.14 392.756 1104.44 392.696 1104.76 392.636C1105 392.636 1105.19 392.576 1105.37 392.516L1324.8 356.519C1330.23 355.622 1334.47 351.374 1335.37 345.95L1371.36 126.498C1371.42 126.319 1371.48 126.119 1371.48 125.88C1371.54 125.581 1371.6 125.262 1371.6 124.883C1371.98 121.672 1370.87 118.322 1368.33 115.789C1364.4 111.9 1358.34 111.421 1353.9 114.393Z" fill="white" fill-opacity="0.5"/>
<path d="M1696.38 -228.126C1695.76 -227.747 1695.14 -227.268 1694.58 -226.71C1694.03 -226.151 1693.53 -225.533 1693.17 -224.915L1596.61 -71.255C1595.6 -69.6197 1594.22 -68.2437 1592.59 -67.2266L1438.94 29.3369C1438.33 29.7158 1437.71 30.2143 1437.15 30.7527C1436.59 31.3111 1436.09 31.9294 1435.73 32.5476C1432.76 36.9949 1433.26 43.0575 1437.15 46.9663C1439.68 49.499 1443.03 50.6158 1446.24 50.2369C1446.62 50.2369 1446.92 50.1771 1447.24 50.1173C1447.48 50.1173 1447.68 50.0575 1447.86 49.9976L1667.28 14.0008C1672.71 13.1033 1676.96 8.85553 1677.85 3.43106L1713.85 -216.02C1713.91 -216.2 1713.97 -216.399 1713.97 -216.639C1714.03 -216.938 1714.09 -217.257 1714.09 -217.636C1714.46 -220.847 1713.35 -224.197 1710.82 -226.73C1706.89 -230.619 1700.83 -231.097 1696.38 -228.126Z" fill="white" fill-opacity="0.5"/>
<path d="M1519.46 390.024C1520.08 389.645 1520.7 389.166 1521.26 388.608C1521.82 388.049 1522.32 387.431 1522.67 386.813L1619.23 233.153C1620.24 231.518 1621.62 230.142 1623.26 229.125L1776.9 132.561C1777.52 132.182 1778.14 131.684 1778.69 131.145C1779.25 130.587 1779.75 129.969 1780.11 129.35C1783.08 124.903 1782.58 118.84 1778.69 114.932C1776.16 112.399 1772.81 111.282 1769.6 111.661C1769.22 111.661 1768.92 111.721 1768.6 111.781C1768.36 111.781 1768.17 111.84 1767.99 111.9L1548.56 147.897C1543.13 148.795 1538.89 153.043 1537.99 158.467L1502 377.918C1501.94 378.098 1501.88 378.297 1501.88 378.537C1501.82 378.836 1501.76 379.155 1501.76 379.534C1501.38 382.745 1502.49 386.095 1505.03 388.628C1508.94 392.497 1515 392.995 1519.46 390.024Z" fill="white" fill-opacity="0.5"/>
<path d="M1295.37 740.878C1294.75 741.257 1294.13 741.736 1293.57 742.294C1293.02 742.853 1292.52 743.471 1292.16 744.089L1195.61 897.749C1194.59 899.384 1193.21 900.76 1191.58 901.777L1037.93 998.341C1037.32 998.72 1036.7 999.218 1036.14 999.757C1035.58 1000.32 1035.08 1000.93 1034.72 1001.55C1031.75 1006 1032.25 1012.06 1036.14 1015.97C1038.67 1018.5 1042.02 1019.62 1045.23 1019.24C1045.61 1019.24 1045.91 1019.18 1046.23 1019.12C1046.47 1019.12 1046.67 1019.06 1046.85 1019L1266.28 983.005C1271.7 982.107 1275.95 977.859 1276.84 972.435L1312.84 752.984C1312.9 752.804 1312.96 752.605 1312.96 752.365C1313.02 752.066 1313.08 751.747 1313.08 751.368C1313.46 748.157 1312.34 744.807 1309.81 742.274C1305.88 738.405 1299.82 737.907 1295.37 740.878Z" fill="white" fill-opacity="0.5"/>
<path d="M1460.94 1016.53C1461.56 1016.15 1462.17 1015.67 1462.73 1015.11C1463.29 1014.55 1463.79 1013.94 1464.15 1013.32L1562.26 857.185L1718.37 759.066C1718.99 758.688 1719.61 758.189 1720.17 757.651C1720.73 757.092 1721.22 756.474 1721.58 755.856C1724.55 751.408 1724.06 745.346 1720.17 741.437C1717.64 738.904 1714.28 737.787 1711.07 738.166C1710.7 738.166 1710.4 738.226 1710.08 738.286C1709.84 738.286 1709.64 738.346 1709.46 738.406L1490.03 774.403C1484.61 775.3 1480.36 779.548 1479.46 784.972L1443.47 1004.42C1443.41 1004.6 1443.35 1004.8 1443.35 1005.04C1443.29 1005.34 1443.23 1005.66 1443.23 1006.04C1442.85 1009.25 1443.97 1012.6 1446.5 1015.13C1450.41 1019 1456.47 1019.5 1460.94 1016.53Z" fill="white" fill-opacity="0.5"/>
<path d="M1637.85 398.36C1637.23 398.739 1636.62 399.217 1636.06 399.776C1635.5 400.334 1635 400.952 1634.64 401.57L1538.09 555.23C1537.07 556.866 1535.7 558.242 1534.06 559.259L1380.42 655.822C1379.8 656.201 1379.18 656.7 1378.62 657.238C1378.06 657.797 1377.57 658.415 1377.21 659.033C1374.24 663.48 1374.73 669.543 1378.62 673.452C1381.15 675.984 1384.5 677.101 1387.72 676.722C1388.09 676.722 1388.39 676.663 1388.71 676.603C1388.95 676.603 1389.15 676.543 1389.33 676.483L1608.76 640.486C1614.18 639.589 1618.43 635.341 1619.33 629.916L1655.32 410.465C1655.38 410.286 1655.44 410.086 1655.44 409.847C1655.5 409.548 1655.56 409.229 1655.56 408.85C1655.94 405.639 1654.82 402.288 1652.29 399.756C1648.36 395.887 1642.3 395.388 1637.85 398.36Z" fill="white" fill-opacity="0.5"/>
<path d="M1980.33 55.8406C1979.72 56.2195 1979.1 56.6982 1978.54 57.2566C1977.98 57.815 1977.48 58.4332 1977.12 59.0514L1880.57 212.711C1879.55 214.347 1878.18 215.723 1876.54 216.74L1722.9 313.303C1722.28 313.682 1721.66 314.181 1721.1 314.719C1720.55 315.277 1720.05 315.896 1719.69 316.514C1716.72 320.961 1717.22 327.024 1721.1 330.933C1723.64 333.465 1726.99 334.582 1730.2 334.203C1730.58 334.203 1730.88 334.143 1731.19 334.084C1731.43 334.084 1731.63 334.024 1731.81 333.964L1951.24 297.967C1956.66 297.07 1960.91 292.822 1961.81 287.397L1997.8 67.946C1997.86 67.7665 1997.92 67.567 1997.92 67.3277C1997.98 67.0286 1998.04 66.7095 1998.04 66.3306C1998.42 63.1198 1997.3 59.7694 1994.77 57.2366C1990.84 53.3677 1984.78 52.8691 1980.33 55.8406Z" fill="white" fill-opacity="0.5"/>
<path d="M1803.42 674.01C1804.04 673.631 1804.66 673.152 1805.21 672.594C1805.77 672.036 1806.27 671.417 1806.63 670.799L1903.18 517.139C1904.2 515.504 1905.58 514.128 1907.21 513.111L2060.86 416.547C2061.47 416.169 2062.09 415.67 2062.65 415.132C2063.21 414.573 2063.71 413.955 2064.07 413.337C2067.04 408.889 2066.54 402.827 2062.65 398.918C2060.12 396.385 2056.77 395.268 2053.56 395.647C2053.18 395.647 2052.88 395.707 2052.56 395.767C2052.32 395.767 2052.12 395.827 2051.94 395.887L1832.51 431.884C1827.09 432.781 1822.84 437.029 1821.94 442.453L1785.95 661.905C1785.89 662.084 1785.83 662.284 1785.83 662.523C1785.77 662.822 1785.71 663.141 1785.71 663.52C1785.33 666.731 1786.45 670.081 1788.98 672.614C1792.89 676.483 1798.95 676.982 1803.42 674.01Z" fill="white" fill-opacity="0.5"/>
</g>
<defs>
<clipPath id="clip0_19_408">
<rect width="1920" height="973" fill="white" transform="translate(0 -117)"/>
</clipPath>
</defs>
</svg>
